<?xml version="1.0" encoding="UTF-8"?>
<!DOCTYPE svg PUBLIC "-//W3C//DTD SVG 1.1//EN" "http://www.w3.org/Graphics/SVG/1.1/DTD/svg11.dtd">
<svg xmlns="http://www.w3.org/2000/svg" version="1.1" width="216px" height="69px" style="shape-rendering:geometricPrecision; text-rendering:geometricPrecision; image-rendering:optimizeQuality; fill-rule:evenodd; clip-rule:evenodd" xmlns:xlink="http://www.w3.org/1999/xlink">
<g><path style="opacity:0.549" fill="#717172" d="M 137.5,9.5 C 127.167,9.5 116.833,9.5 106.5,9.5C 112.487,8.56044 118.654,7.89377 125,7.5C 128.76,8.20384 132.427,8.20384 136,7.5C 136.717,8.0442 137.217,8.71087 137.5,9.5 Z"/></g>
<g><path style="opacity:1" fill="#ededed" d="M 106.5,9.5 C 116.833,9.5 127.167,9.5 137.5,9.5C 140.091,10.2543 141.924,11.921 143,14.5C 144.01,19.5577 143.51,24.3911 141.5,29C 147.759,47.4147 141.259,54.5814 122,50.5C 102.741,54.5814 96.241,47.4147 102.5,29C 100.046,23.6039 99.8793,18.1039 102,12.5C 103.129,10.8588 104.629,9.85883 106.5,9.5 Z M 108.5,15.5 C 117.506,15.3336 126.506,15.5002 135.5,16C 136.617,19.0731 136.784,22.2397 136,25.5C 126.911,26.6503 117.745,26.817 108.5,26C 107.203,22.5011 107.203,19.0011 108.5,15.5 Z M 136.5,42.5 C 126.833,43.8333 117.167,43.8333 107.5,42.5C 107.216,39.2234 107.549,36.0567 108.5,33C 117.5,32.3333 126.5,32.3333 135.5,33C 136.451,36.0567 136.784,39.2234 136.5,42.5 Z"/></g>
<g><path style="opacity:0.145" fill="#0d3127" d="M 153.5,13.5 C 155.099,14.7985 155.599,16.4652 155,18.5C 152.726,19.8112 150.56,19.8112 148.5,18.5C 150.167,18.5 151.833,18.5 153.5,18.5C 153.5,16.8333 153.5,15.1667 153.5,13.5 Z"/></g>
<g><path style="opacity:1" fill="#279273" d="M 153.5,13.5 C 153.5,15.1667 153.5,16.8333 153.5,18.5C 151.833,18.5 150.167,18.5 148.5,18.5C 147.893,13.9662 149.56,12.2995 153.5,13.5 Z"/></g>
<g><path style="opacity:0.027" fill="#0c1c1a" d="M 163.5,20.5 C 165.735,20.2053 167.735,20.5386 169.5,21.5C 168.088,22.1656 166.755,22.4989 165.5,22.5C 164.167,22.5 163.5,21.8333 163.5,20.5 Z"/></g>
<g><path style="opacity:0.93" fill="#24715d" d="M 92.5,23.5 C 85.4921,23.3337 78.4921,23.5004 71.5,24C 70.3066,25.0946 68.9733,25.928 67.5,26.5C 67.5743,24.5891 68.5743,23.4224 70.5,23C 76.8838,22.7941 83.2171,22.2941 89.5,21.5C 90.7387,21.9424 91.7387,22.6091 92.5,23.5 Z"/></g>
<g><path style="opacity:1" fill="#1e8269" d="M 34.5,22.5 C 36.7409,23.2998 37.7409,24.9664 37.5,27.5C 29.8333,27.5 22.1667,27.5 14.5,27.5C 21.3447,26.8334 28.3447,26.1667 35.5,25.5C 27.5208,24.3351 19.5208,24.1684 11.5,25C 10.3534,32.4201 10.1868,39.9201 11,47.5C 11.5,48 12,48.5 12.5,49C 20.4931,49.4997 28.4931,49.6664 36.5,49.5C 36.5,48.1667 36.5,46.8333 36.5,45.5C 36.8333,45.5 37.1667,45.5 37.5,45.5C 38.709,47.4346 38.5423,49.4346 37,51.5C 29.6101,50.2604 21.9434,50.2604 14,51.5C 10.805,50.1486 8.97166,47.8153 8.5,44.5C 8.24871,38.1082 8.58204,31.7748 9.5,25.5C 11.5418,23.1703 14.2084,22.0036 17.5,22C 23.1667,21.7583 28.8333,21.9249 34.5,22.5 Z"/></g>
<g><path style="opacity:0.02" fill="#083632" d="M 34.5,22.5 C 35.5417,21.2089 36.7083,21.2089 38,22.5C 38.7796,24.3869 38.6129,26.0536 37.5,27.5C 37.7409,24.9664 36.7409,23.2998 34.5,22.5 Z"/></g>
<g><path style="opacity:0.03" fill="#002726" d="M 9.5,25.5 C 8.58204,31.7748 8.24871,38.1082 8.5,44.5C 7.34745,38.6812 7.18079,32.6812 8,26.5C 8.38258,25.944 8.88258,25.6107 9.5,25.5 Z"/></g>
<g><path style="opacity:0.318" fill="#17564a" d="M 14.5,27.5 C 22.1667,27.5 29.8333,27.5 37.5,27.5C 30.3448,28.3288 23.0115,28.8288 15.5,29C 14.8348,33.5602 14.5015,38.3936 14.5,43.5C 13.1979,38.2663 13.1979,32.9329 14.5,27.5 Z"/></g>
<g><path style="opacity:0.282" fill="#13473d" d="M 63.5,22.5 C 64.4614,24.2646 64.7947,26.2646 64.5,28.5C 59.4889,28.3341 54.4889,28.5007 49.5,29C 48.8906,30.9483 48.224,32.7816 47.5,34.5C 47.5,32.1667 47.5,29.8333 47.5,27.5C 52.8333,27.5 58.1667,27.5 63.5,27.5C 63.5,25.8333 63.5,24.1667 63.5,22.5 Z"/></g>
<g><path style="opacity:1" fill="#169d7a" d="M 63.5,22.5 C 63.5,24.1667 63.5,25.8333 63.5,27.5C 58.1667,27.5 52.8333,27.5 47.5,27.5C 47.5,29.8333 47.5,32.1667 47.5,34.5C 47.5,39.8333 47.5,45.1667 47.5,50.5C 45.8333,50.5 44.1667,50.5 42.5,50.5C 42.3336,42.4931 42.5003,34.4931 43,26.5C 44.045,25.6266 44.8783,24.6266 45.5,23.5C 51.31,22.5104 57.31,22.1771 63.5,22.5 Z"/></g>
<g><path style="opacity:1" fill="#2a9378" d="M 150.5,22.5 C 151.5,22.5 152.5,22.5 153.5,22.5C 153.5,31.8333 153.5,41.1667 153.5,50.5C 151.833,50.5 150.167,50.5 148.5,50.5C 147.861,40.7734 148.528,31.4401 150.5,22.5 Z"/></g>
<g><path style="opacity:1" fill="#06a47d" d="M 149.5,24.5 C 150.5,24.5 151.5,24.5 152.5,24.5C 152.5,32.8333 152.5,41.1667 152.5,49.5C 151.5,49.5 150.5,49.5 149.5,49.5C 149.5,41.1667 149.5,32.8333 149.5,24.5 Z"/></g>
<g><path style="opacity:0.105" fill="#0c382e" d="M 150.5,22.5 C 152.515,21.1475 154.182,21.6475 155.5,24C 154.167,32 154.167,40 155.5,48C 154.934,48.9947 154.267,49.828 153.5,50.5C 153.5,41.1667 153.5,31.8333 153.5,22.5C 152.5,22.5 151.5,22.5 150.5,22.5 Z"/></g>
<g><path style="opacity:0.643" fill="#18745d" d="M 158.5,16.5 C 158.5,27.5 158.5,38.5 158.5,49.5C 159.833,49.5 161.167,49.5 162.5,49.5C 162.5,42.1667 162.5,34.8333 162.5,27.5C 166.167,27.5 169.833,27.5 173.5,27.5C 173.5,26.1667 173.5,24.8333 173.5,23.5C 170.615,23.8064 167.948,23.4731 165.5,22.5C 166.755,22.4989 168.088,22.1656 169.5,21.5C 170.708,22.2341 172.041,22.5674 173.5,22.5C 174.451,23.9187 174.784,25.5853 174.5,27.5C 171.038,28.4816 167.371,28.815 163.5,28.5C 163.5,35.8333 163.5,43.1667 163.5,50.5C 161.5,50.5 159.5,50.5 157.5,50.5C 157.172,38.9877 157.505,27.6544 158.5,16.5 Z"/></g>
<g><path style="opacity:1" fill="#119976" d="M 163.5,20.5 C 163.5,21.8333 164.167,22.5 165.5,22.5C 167.948,23.4731 170.615,23.8064 173.5,23.5C 173.5,24.8333 173.5,26.1667 173.5,27.5C 169.833,27.5 166.167,27.5 162.5,27.5C 162.5,34.8333 162.5,42.1667 162.5,49.5C 161.167,49.5 159.833,49.5 158.5,49.5C 158.5,38.5 158.5,27.5 158.5,16.5C 158.937,14.9256 159.937,13.7589 161.5,13C 165.848,12.5845 170.181,12.7512 174.5,13.5C 174.5,15.5 174.5,17.5 174.5,19.5C 170.629,19.185 166.962,19.5184 163.5,20.5 Z"/></g>
<g><path style="opacity:0.244" fill="#134339" d="M 66.5,27.5 C 67.4902,33.6446 67.8235,39.9779 67.5,46.5C 66.7185,41.1599 66.0519,35.6599 65.5,30C 65.528,28.9302 65.8614,28.0968 66.5,27.5 Z"/></g>
<g><path style="opacity:1" fill="#169d79" d="M 92.5,23.5 C 93.4584,23.9528 94.2917,24.6195 95,25.5C 95.4974,28.146 95.6641,30.8127 95.5,33.5C 94.5489,34.9187 94.2155,36.5853 94.5,38.5C 86.7572,37.8701 79.4238,38.5367 72.5,40.5C 72.5,41.5 72.5,42.5 72.5,43.5C 79.7605,45.4651 87.4271,46.1318 95.5,45.5C 96.8009,46.8845 96.8009,48.3845 95.5,50C 87.1667,50.6667 78.8333,50.6667 70.5,50C 68.9443,49.2798 67.9443,48.1132 67.5,46.5C 67.8235,39.9779 67.4902,33.6446 66.5,27.5C 66.5,26.8333 66.8333,26.5 67.5,26.5C 68.9733,25.928 70.3066,25.0946 71.5,24C 78.4921,23.5004 85.4921,23.3337 92.5,23.5 Z M 89.5,28.5 C 89.5,30.1667 89.5,31.8333 89.5,33.5C 83.6118,34.0117 77.9452,33.3451 72.5,31.5C 72.5,30.8333 72.5,30.1667 72.5,29.5C 78.1064,28.5931 83.773,28.2598 89.5,28.5 Z"/></g>
<g><path style="opacity:0.272" fill="#135044" d="M 89.5,28.5 C 83.773,28.2598 78.1064,28.5931 72.5,29.5C 74.9151,28.1858 77.7485,27.5191 81,27.5C 84.0208,27.5022 86.8541,27.8356 89.5,28.5 Z"/></g>
<g><path style="opacity:0.139" fill="#014132" d="M 89.5,28.5 C 90.4614,30.2646 90.7947,32.2646 90.5,34.5C 84.5,34.5 78.5,34.5 72.5,34.5C 72.5,33.5 72.5,32.5 72.5,31.5C 77.9452,33.3451 83.6118,34.0117 89.5,33.5C 89.5,31.8333 89.5,30.1667 89.5,28.5 Z"/></g>
<g><path style="opacity:1" fill="#0ca37b" d="M 14.5,27.5 C 13.1979,32.9329 13.1979,38.2663 14.5,43.5C 21.4238,45.4633 28.7572,46.1299 36.5,45.5C 36.5,46.8333 36.5,48.1667 36.5,49.5C 28.4931,49.6664 20.4931,49.4997 12.5,49C 12,48.5 11.5,48 11,47.5C 10.1868,39.9201 10.3534,32.4201 11.5,25C 19.5208,24.1684 27.5208,24.3351 35.5,25.5C 28.3447,26.1667 21.3447,26.8334 14.5,27.5 Z"/></g>
<g><path style="opacity:0.189" fill="#044738" d="M 45.5,23.5 C 44.8783,24.6266 44.045,25.6266 43,26.5C 42.5003,34.4931 42.3336,42.4931 42.5,50.5C 41.3434,42.3437 41.1768,34.0104 42,25.5C 42.8159,24.1772 43.9826,23.5106 45.5,23.5 Z"/></g>
<g><path style="opacity:0.677" fill="#196a56" d="M 95.5,33.5 C 97.0078,36.1401 96.6744,38.4734 94.5,40.5C 87.1922,39.3302 79.8589,39.3302 72.5,40.5C 79.4238,38.5367 86.7572,37.8701 94.5,38.5C 94.2155,36.5853 94.5489,34.9187 95.5,33.5 Z"/></g>
<g><path style="opacity:0.153" fill="#0d3830" d="M 178.5,22.5 C 177.534,30.0804 177.201,37.747 177.5,45.5C 176.971,39.4233 175.971,33.4233 174.5,27.5C 174.784,25.5853 174.451,23.9187 173.5,22.5C 172.15,21.3501 172.316,20.6834 174,20.5C 175.64,21.8433 177.14,22.5099 178.5,22.5 Z"/></g>
<g><path style="opacity:0.198" fill="#515152" d="M 107.5,42.5 C 117.167,43.8333 126.833,43.8333 136.5,42.5C 132.049,43.8271 127.216,44.4937 122,44.5C 116.784,44.4937 111.951,43.8271 107.5,42.5 Z"/></g>
<g><path style="opacity:0.181" fill="#0e3b32" d="M 14.5,43.5 C 22.0255,44.0241 29.6922,44.6908 37.5,45.5C 37.1667,45.5 36.8333,45.5 36.5,45.5C 28.7572,46.1299 21.4238,45.4633 14.5,43.5 Z"/></g>
<g><path style="opacity:0.176" fill="#0c2f28" d="M 72.5,43.5 C 77.9284,44.3557 83.2618,44.3557 88.5,43.5C 91.2695,43.5286 93.6028,44.1952 95.5,45.5C 87.4271,46.1318 79.7605,45.4651 72.5,43.5 Z"/></g>
<g><path style="opacity:0.118" fill="#042b22" d="M 181.5,50.5 C 187.833,50.5 194.167,50.5 200.5,50.5C 200.784,52.4147 200.451,54.0813 199.5,55.5C 193.833,55.5 188.167,55.5 182.5,55.5C 187.316,54.6739 192.316,54.1739 197.5,54C 198.308,53.6924 198.975,53.1924 199.5,52.5C 193.346,51.8332 187.346,51.1666 181.5,50.5 Z"/></g>
<g><path style="opacity:0.586" fill="#135947" d="M 182.5,55.5 C 188.167,55.5 193.833,55.5 199.5,55.5C 194.025,56.4889 188.358,56.8222 182.5,56.5C 182.5,57.8333 182.5,59.1667 182.5,60.5C 189.167,60.5 195.833,60.5 202.5,60.5C 201.504,61.6651 200.171,62.3318 198.5,62.5C 193.457,61.4554 188.123,61.2888 182.5,62C 181.189,59.7265 181.189,57.5598 182.5,55.5 Z"/></g>
<g><path style="opacity:1" fill="#1a8c6f" d="M 182.5,30.5 C 182.5,35.1667 182.5,39.8333 182.5,44.5C 180.859,38.5531 179.859,32.2197 179.5,25.5C 178.069,33.2506 178.235,40.9172 180,48.5C 187.47,49.8203 194.97,49.8203 202.5,48.5C 202.887,50.7308 203.053,53.0641 203,55.5C 204.474,45.3312 204.974,34.9979 204.5,24.5C 203.5,24.5 202.5,24.5 201.5,24.5C 201.666,31.5079 201.5,38.5079 201,45.5C 194.734,46.8258 188.568,46.8258 182.5,45.5C 188.425,45.8082 194.259,45.4749 200,44.5C 200.5,37.1742 200.666,29.8409 200.5,22.5C 202.223,21.193 204.057,21.193 206,22.5C 206.667,33.8333 206.667,45.1667 206,56.5C 205.34,58.3237 204.173,59.657 202.5,60.5C 195.833,60.5 189.167,60.5 182.5,60.5C 182.5,59.1667 182.5,57.8333 182.5,56.5C 188.358,56.8222 194.025,56.4889 199.5,55.5C 200.451,54.0813 200.784,52.4147 200.5,50.5C 194.167,50.5 187.833,50.5 181.5,50.5C 178.703,50.0334 177.369,48.3667 177.5,45.5C 177.201,37.747 177.534,30.0804 178.5,22.5C 179.688,21.9524 180.855,21.6191 182,21.5C 182.498,24.4816 182.665,27.4816 182.5,30.5 Z"/></g>
<g><path style="opacity:1" fill="#07a57b" d="M 182.5,44.5 C 182.5,44.8333 182.5,45.1667 182.5,45.5C 188.568,46.8258 194.734,46.8258 201,45.5C 201.5,38.5079 201.666,31.5079 201.5,24.5C 202.5,24.5 203.5,24.5 204.5,24.5C 204.974,34.9979 204.474,45.3312 203,55.5C 203.053,53.0641 202.887,50.7308 202.5,48.5C 194.97,49.8203 187.47,49.8203 180,48.5C 178.235,40.9172 178.069,33.2506 179.5,25.5C 179.859,32.2197 180.859,38.5531 182.5,44.5 Z"/></g>
<g><path style="opacity:0.187" fill="#06392e" d="M 200.5,22.5 C 200.666,29.8409 200.5,37.1742 200,44.5C 194.259,45.4749 188.425,45.8082 182.5,45.5C 182.5,45.1667 182.5,44.8333 182.5,44.5C 182.5,39.8333 182.5,35.1667 182.5,30.5C 183.486,34.97 183.819,39.6367 183.5,44.5C 188.88,44.6757 194.213,44.3424 199.5,43.5C 199.175,36.3134 199.509,29.3134 200.5,22.5 Z"/></g>
</svg>
